<svg width="38" height="26" viewBox="0 0 38 26" fill="none" xmlns="http://www.w3.org/2000/svg">
<path d="M11.6411 14.2801C11.6072 16.0371 12.695 17.6247 14.3509 18.2128C16.6665 19.0352 19.5273 19.5495 22.632 19.6094C30.4309 19.7598 36.8064 16.9894 36.8753 13.4186C36.9441 9.84775 30.6803 6.82905 22.8814 6.67865C19.776 6.61877 16.8971 7.0232 14.5513 7.75679C12.8746 8.28117 11.727 9.82528 11.6932 11.5817L11.6411 14.2801Z" fill="#FEB700"/>
<path d="M27.5027 15.3726C26.323 15.3499 25.3866 14.3735 25.4094 13.1938C25.4321 12.0171 26.4053 11.0776 27.5852 11.1003C28.7649 11.1231 29.7012 12.0994 29.6786 13.2761C29.6558 14.4558 28.6825 15.3954 27.5027 15.3726Z" fill="white"/>
<path d="M14.5804 7.74716C13.6808 5.56171 12.0987 3.72601 10.0885 2.51711C11.7203 1.61001 13.6102 1.1115 15.6087 1.14691C19.6587 1.22815 23.1535 3.48862 24.992 6.79036L24.995 6.79356" fill="white"/>
<path d="M24.7516 19.5755C22.7871 22.8038 19.2046 24.931 15.1514 24.8529C13.153 24.8175 11.2837 24.2464 9.68803 23.2771C11.7403 22.1434 13.3952 20.367 14.3752 18.2209" fill="white"/>
<path d="M5.50832 15.5996C3.78509 15.5996 1 13.3139 1 13.3139C1 13.3139 3.78505 11.0281 5.50824 11.0281C7.23596 11.0281 8.63331 12.0534 8.63331 13.3139C8.63331 14.5776 7.236 15.5996 5.50832 15.5996Z" fill="white"/>
<path d="M14.5804 7.74716C13.6808 5.56171 12.0987 3.72601 10.0885 2.51711C11.7203 1.61001 13.6102 1.1115 15.6087 1.14691C19.6587 1.22815 23.1535 3.48862 24.992 6.79036L24.995 6.79356M24.7516 19.5755C22.7871 22.8038 19.2046 24.931 15.1514 24.8529C13.153 24.8175 11.2837 24.2464 9.68803 23.2771C11.7403 22.1434 13.3952 20.367 14.3752 18.2209M27.5027 15.3726C26.323 15.3499 25.3866 14.3735 25.4094 13.1938C25.4321 12.0171 26.4053 11.0776 27.5852 11.1003C28.7649 11.1231 29.7012 12.0994 29.6786 13.2761C29.6558 14.4558 28.6825 15.3954 27.5027 15.3726ZM11.641 14.2803C11.6072 16.0373 12.6949 17.6249 14.3508 18.213C16.6664 19.0354 19.5272 19.5497 22.6319 19.6096C30.4309 19.76 36.8063 16.9896 36.8752 13.4188C36.9441 9.84795 30.6802 6.82926 22.8813 6.67885C19.776 6.61897 16.897 7.0234 14.5512 7.75699C12.8745 8.28138 11.727 9.82548 11.6931 11.5819L11.641 14.2803ZM5.50832 15.5996C3.78509 15.5996 1 13.3139 1 13.3139C1 13.3139 3.78505 11.0281 5.50824 11.0281C7.23596 11.0281 8.63331 12.0534 8.63331 13.3139C8.63331 14.5776 7.236 15.5996 5.50832 15.5996Z" stroke="#06101A" stroke-width="1.57056" stroke-linecap="round" stroke-linejoin="round"/>
</svg>
