<svg width="60" height="60" viewBox="0 0 60 60" fill="none" xmlns="http://www.w3.org/2000/svg">
<path d="M47.2721 37.8125C48.2895 38.1911 48.6808 39.6656 48.7586 40.3088C48.9154 41.4822 48.5641 41.9361 48.1728 41.9361C47.7814 41.9361 47.2332 41.4822 46.6474 40.5745C46.0604 39.6656 45.8258 38.645 46.1394 38.1147C46.3338 37.7737 46.7629 37.6232 47.2721 37.8125ZM41.3287 42.0878C41.9546 42.0878 42.6584 42.3523 43.2843 42.8814C44.4961 43.8656 44.8486 45.0002 44.2226 45.8327C43.8702 46.2489 43.2843 46.5135 42.6195 46.5135C41.9546 46.5135 41.2509 46.2866 40.7818 45.8703C39.6867 44.9626 39.3743 43.4482 40.0768 42.6169C40.3515 42.2759 40.7818 42.0878 41.3287 42.0878ZM27.643 53.0204C12.782 53.0204 0.738281 41.3682 0.738281 26.9928C0.738281 12.6174 12.7832 0.966309 27.6418 0.966309C42.5016 0.966309 54.5465 12.6185 54.5465 26.9928C54.5465 31.8724 53.139 36.451 50.7543 40.3476C50.6753 40.4605 50.4796 40.4228 50.4408 40.2711C49.5024 33.8783 45.4745 30.3591 39.6089 29.3009C39.0996 29.2245 39.0218 28.9223 39.6867 28.847C41.4855 28.6953 44.0269 28.733 45.3566 28.9599C45.4344 28.3167 45.4745 27.6359 45.4745 26.9551C45.4745 17.4593 37.4965 9.74135 27.6807 9.74135C17.8661 9.74135 9.88802 17.4593 9.88802 26.9551C9.88802 36.451 17.8661 44.1689 27.6819 44.1689H28.5023C28.2236 42.633 28.1055 41.0739 28.1498 39.5151C28.1899 38.4557 28.4245 38.304 28.8937 39.1365C31.3573 43.26 34.8772 46.9674 41.759 48.443C47.39 49.6541 53.0211 51.0533 59.0824 58.5056C59.6294 59.1487 58.809 59.8295 58.183 59.3004C52.005 54.0034 46.3739 52.2632 41.2509 52.2632C35.5019 52.302 31.5931 53.0204 27.643 53.0204Z" fill="#F7971D"/>
</svg>
