<svg width="60" height="60" viewBox="0 0 60 60" fill="none" xmlns="http://www.w3.org/2000/svg">
<path d="M55.2878 21.5135H51.6143C50.5037 21.5135 49.6495 21.8552 49.1369 22.9658L42.1316 38.9411H47.0866C47.0866 38.9411 47.9409 36.8054 48.1117 36.2928C48.6243 36.2928 53.4938 36.2928 54.1772 36.2928C54.3481 36.8908 54.7752 38.8557 54.7752 38.8557H59.2176L55.2878 21.5135ZM49.4786 32.7048C49.9057 31.6796 51.3581 27.8353 51.3581 27.8353C51.3581 27.9207 51.7852 26.8101 51.9561 26.2121L52.2978 27.7499C52.2978 27.7499 53.2375 31.9359 53.4084 32.7902H49.4786V32.7048Z" fill="#F7971D"/>
<path d="M42.474 33.218C42.474 36.806 39.2276 39.198 34.1873 39.198C32.0515 39.198 30.0012 38.7709 28.8907 38.2583L29.5741 34.3285L30.1721 34.5848C31.7098 35.2683 32.735 35.5246 34.6144 35.5246C35.9813 35.5246 37.4336 35.012 37.4336 33.816C37.4336 33.0471 36.8356 32.5345 34.9562 31.6802C33.1621 30.8259 30.7701 29.4591 30.7701 26.9816C30.7701 23.5644 34.1019 21.2578 38.8005 21.2578C40.5945 21.2578 42.1323 21.5995 43.072 22.0267L42.3885 25.7856L42.0468 25.4439C41.1925 25.1021 40.0819 24.7604 38.4588 24.7604C36.6647 24.8459 35.8105 25.6147 35.8105 26.2982C35.8105 27.067 36.8356 27.665 38.4588 28.4339C41.1925 29.7153 42.474 31.1677 42.474 33.218Z" fill="#F7971D"/>
<path d="M22.2276 21.5132L14.7952 38.8554H9.75488L5.4834 24.3324C8.55887 26.2973 11.1218 29.3727 12.0615 31.5085L12.5741 33.3025L17.1873 21.4278H22.2276V21.5132Z" fill="#F7971D"/>
<path d="M24.1913 21.4278H28.89L25.8999 38.8554H21.2013L24.1913 21.4278Z" fill="#F7971D"/>
<path d="M0.782715 21.6855L0.868144 21.3438H8.21509C9.24025 21.3438 10.0091 21.6855 10.2654 22.7961L11.8886 30.4847C10.2654 26.3841 6.5065 23.0523 0.782715 21.6855Z" fill="white"/>
</svg>
