<svg width="60" height="60" viewBox="0 0 60 60" fill="none" xmlns="http://www.w3.org/2000/svg">
<path d="M38.4807 10.7192C26.9084 10.7192 17.7031 19.4854 17.7031 30.2271C17.7031 41.0922 27.0399 49.7349 38.4807 49.7349C49.9215 49.7349 59.2582 40.9688 59.2582 30.2271C59.2582 19.4854 49.9215 10.7192 38.4807 10.7192ZM38.4807 37.5117C34.2726 37.5117 30.722 34.1781 30.722 30.2271C30.722 26.2761 34.2726 22.9425 38.4807 22.9425C42.6888 22.9425 46.2394 26.2761 46.2394 30.2271C46.1081 34.1781 42.6888 37.5117 38.4807 37.5117Z" fill="#F7971D"/>
<path d="M17.5708 16.4014V44.7988H10.2066L0.738281 16.4014H17.5708Z" fill="#F7971D"/>
</svg>
