<svg width="60" height="60" viewBox="0 0 60 60" fill="none" xmlns="http://www.w3.org/2000/svg">
<g clip-path="url(#clip0_3604_2030)">
<path d="M0.738281 22.2487H6.22486C6.72365 22.2487 8.21999 22.0824 8.88503 24.4101C9.38381 25.9064 10.0488 28.2341 11.0464 31.7255H11.3789C12.3765 28.0678 13.2078 25.5739 13.5403 24.4101C14.2053 22.0824 15.868 22.2487 16.533 22.2487H21.6871V38.2097H16.3667V28.7328H16.0342L13.2078 38.2097H9.21755L6.39112 28.7328H5.89234V38.2097H0.738281M23.8484 22.2487H29.1688V31.7255H29.6675L33.159 23.9113C33.824 22.415 35.3204 22.2487 35.3204 22.2487H40.3082V38.2097H34.9879V28.7328H34.6553L31.1639 36.5471C30.4988 38.0434 28.8362 38.2097 28.8362 38.2097H23.8484M47.4574 33.3881V38.2097H42.4696V29.8967H58.7631C58.098 31.8918 55.7704 33.3881 53.1102 33.3881" fill="#F7971D"/>
<path d="M59.095 28.8965C59.76 25.9038 57.7649 22.2461 53.4422 22.2461H42.1365C42.469 25.7376 45.4617 28.8965 48.6206 28.8965" fill="white"/>
</g>
<defs>
<clipPath id="clip0_3604_2030">
<rect width="58.5236" height="58.5236" fill="white" transform="translate(0.738281 0.966309)"/>
</clipPath>
</defs>
</svg>
