<svg width="60" height="60" viewBox="0 0 60 60" fill="none" xmlns="http://www.w3.org/2000/svg">
<ellipse cx="18.9273" cy="30.2296" rx="18.189" ry="18.189" fill="#F7971D"/>
<ellipse opacity="0.5" cx="41.0711" cy="30.2296" rx="18.189" ry="18.189" fill="white"/>
<path fill-rule="evenodd" clip-rule="evenodd" d="M29.9995 15.7964C25.6717 19.1214 22.8821 24.3493 22.8821 30.2288C22.8821 36.1083 25.6717 41.3362 29.9995 44.6612C34.3274 41.3362 37.117 36.1083 37.117 30.2288C37.117 24.3493 34.3274 19.1214 29.9995 15.7964Z" fill="white"/>
<path fill-rule="evenodd" clip-rule="evenodd" d="M29.9995 44.6612C34.3274 41.3362 37.117 36.1083 37.117 30.2288C37.117 24.3493 34.3274 19.1214 29.9995 15.7964C25.6717 19.1214 22.8821 24.3493 22.8821 30.2288C22.8821 36.1083 25.6717 41.3362 29.9995 44.6612Z" fill="white"/>
</svg>
