<svg width="166" height="38" viewBox="0 0 166 38" fill="none" xmlns="http://www.w3.org/2000/svg">
<path d="M2.25678 30.7495V26.8684L14.9462 9.72415V11.2766H2.25678V6.95677H19.9748V10.8041L7.25157 27.9484V26.4297H20.4473V30.7495H2.25678ZM29.8789 31.1207C28.394 31.1207 27.089 30.7608 25.9641 30.0408C24.8391 29.3208 23.9617 28.2971 23.3317 26.9697C22.7017 25.6422 22.3867 24.0448 22.3867 22.1774C22.3867 20.3325 22.7017 18.7463 23.3317 17.4188C23.9617 16.0914 24.8391 15.0789 25.9641 14.3815C27.089 13.6615 28.394 13.3015 29.8789 13.3015C31.2514 13.3015 32.4776 13.639 33.5575 14.314C34.66 14.9664 35.3799 15.8551 35.7174 16.9801H35.3462L35.7512 13.639H40.6447C40.5772 14.3815 40.5097 15.1352 40.4422 15.9001C40.3972 16.6426 40.3747 17.3738 40.3747 18.0938V30.7495H35.3124L35.2787 27.5434H35.6837C35.3237 28.6234 34.6037 29.4896 33.5238 30.142C32.4438 30.7945 31.2289 31.1207 29.8789 31.1207ZM31.4314 27.2734C32.6013 27.2734 33.5463 26.8572 34.2662 26.0247C34.9862 25.1922 35.3462 23.9098 35.3462 22.1774C35.3462 20.4449 34.9862 19.1738 34.2662 18.3638C33.5463 17.5538 32.6013 17.1488 31.4314 17.1488C30.2614 17.1488 29.3165 17.5538 28.5965 18.3638C27.8765 19.1738 27.5165 20.4449 27.5165 22.1774C27.5165 23.9098 27.8653 25.1922 28.5627 26.0247C29.2827 26.8572 30.2389 27.2734 31.4314 27.2734ZM44.554 30.7495V13.639H49.6501V30.7495H44.554ZM44.3515 10.8379V6.07931H49.8188V10.8379H44.3515ZM53.8151 30.7495V18.0938C53.8151 17.3738 53.7926 16.6426 53.7476 15.9001C53.7026 15.1352 53.6351 14.3815 53.5451 13.639H58.4387L58.8099 16.8114H58.4049C58.8999 15.7314 59.6311 14.8764 60.5986 14.2465C61.566 13.6165 62.7135 13.3015 64.0409 13.3015C65.3459 13.3015 66.4371 13.6165 67.3145 14.2465C68.2145 14.8539 68.8557 15.8101 69.2382 17.1151H68.6982C69.1932 15.9451 69.9807 15.0227 71.0606 14.3477C72.1406 13.6502 73.3668 13.3015 74.7392 13.3015C76.6741 13.3015 78.1141 13.8752 79.059 15.0227C80.004 16.1701 80.4765 17.9701 80.4765 20.4224V30.7495H75.3804V20.5912C75.3804 19.3987 75.1892 18.5438 74.8067 18.0263C74.4242 17.5088 73.8055 17.2501 72.9505 17.2501C71.9381 17.2501 71.1394 17.6101 70.5544 18.33C69.9694 19.05 69.6769 20.04 69.6769 21.2999V30.7495H64.5809V20.5912C64.5809 19.3987 64.3896 18.5438 64.0072 18.0263C63.6247 17.5088 63.006 17.2501 62.151 17.2501C61.1385 17.2501 60.3398 17.6101 59.7548 18.33C59.1924 19.05 58.9111 20.04 58.9111 21.2999V30.7495H53.8151Z" fill="white"/>
<rect x="88.104" width="76.4994" height="37.4994" rx="6.74971" fill="#F7971D"/>
<path d="M96.9462 30.7495V5.91057H102.042V16.8451H101.536C102.076 15.6977 102.875 14.8202 103.932 14.2127C104.99 13.6052 106.205 13.3015 107.577 13.3015C109.579 13.3015 111.076 13.8865 112.066 15.0564C113.055 16.2039 113.55 17.9701 113.55 20.355V30.7495H108.454V20.5912C108.454 19.3987 108.229 18.5438 107.779 18.0263C107.352 17.5088 106.677 17.2501 105.755 17.2501C104.63 17.2501 103.73 17.5988 103.055 18.2963C102.38 18.9938 102.042 19.9275 102.042 21.0974V30.7495H96.9462ZM123.853 31.1207C121.716 31.1207 120.13 30.5358 119.095 29.3658C118.06 28.1734 117.542 26.3734 117.542 23.966V13.639H122.638V23.966C122.638 25.046 122.852 25.8447 123.28 26.3622C123.73 26.8797 124.416 27.1384 125.338 27.1384C126.351 27.1384 127.183 26.7897 127.836 26.0922C128.511 25.3722 128.848 24.416 128.848 23.2236V13.639H133.944V30.7495H128.983V27.4759H129.456C128.938 28.6234 128.196 29.5233 127.228 30.1758C126.283 30.8058 125.158 31.1207 123.853 31.1207ZM148.605 31.1207C147.233 31.1207 146.007 30.7833 144.927 30.1083C143.869 29.4333 143.16 28.5334 142.8 27.4084H143.172V30.7495H138.143V5.91057H143.239V16.8451H142.8C143.183 15.7651 143.903 14.9102 144.96 14.2802C146.04 13.6277 147.255 13.3015 148.605 13.3015C150.113 13.3015 151.429 13.6615 152.554 14.3815C153.679 15.1014 154.556 16.1251 155.186 17.4526C155.839 18.78 156.165 20.3775 156.165 22.2449C156.165 24.0898 155.839 25.676 155.186 27.0034C154.556 28.3309 153.667 29.3546 152.52 30.0745C151.395 30.772 150.09 31.1207 148.605 31.1207ZM147.087 27.2734C148.234 27.2734 149.179 26.8684 149.921 26.0585C150.664 25.2485 151.035 23.9773 151.035 22.2449C151.035 20.5124 150.664 19.23 149.921 18.3975C149.179 17.5651 148.234 17.1488 147.087 17.1488C145.917 17.1488 144.96 17.5538 144.218 18.3638C143.498 19.1738 143.138 20.4449 143.138 22.1774C143.138 23.9098 143.498 25.1922 144.218 26.0247C144.96 26.8572 145.917 27.2734 147.087 27.2734Z" fill="#06101A"/>
</svg>
