<svg width="14" height="14" viewBox="0 0 14 14" fill="none" xmlns="http://www.w3.org/2000/svg">
<path d="M11.3783 7.0206H9.08042C8.59249 7.0206 8.19736 6.62202 8.19736 6.12965C8.19736 5.63747 8.59249 5.2381 9.08042 5.2381H11.3783C11.8664 5.2381 12.2619 5.63737 12.2619 6.12965C12.2618 6.62202 11.8663 7.0206 11.3783 7.0206ZM12.0336 9.34721H9.08022C8.59229 9.34721 8.19716 8.94805 8.19716 8.45586C8.19716 7.96428 8.59229 7.56491 9.08022 7.56491H12.0336C12.5219 7.56491 12.9175 7.96418 12.9175 8.45586C12.9174 8.94805 12.5218 9.34721 12.0336 9.34721ZM9.08022 11.6739C8.59229 11.6739 8.19716 11.2747 8.19716 10.7825C8.19716 10.2902 8.59229 9.8916 9.08022 9.8916H12.2415C12.7293 9.8916 13.125 10.2902 13.125 10.7825C13.125 11.2747 12.7293 11.6739 12.2415 11.6739H9.08022ZM9.08022 12.2177H11.3781C11.866 12.2177 12.262 12.6163 12.262 13.1084C12.262 13.6008 11.866 14 11.3781 14H9.08022C8.59229 14 8.19716 13.6008 8.19716 13.1084C8.19716 12.6163 8.59229 12.2177 9.08022 12.2177ZM3.50352 4.17077C3.93629 2.91074 4.0433 1.0694 4.0433 1.0694C4.0433 0.478999 4.22742 0 4.91594 0C5.60493 0 6.16372 0.478898 6.16372 1.0694V5.17427H8.08051C8.19338 5.17427 7.7651 5.69604 7.7651 6.11143C7.7651 6.62798 8.32895 7.28073 8.32895 7.28073C8.32895 7.28073 7.7651 7.90523 7.7651 8.42181C7.7651 8.93828 8.32895 9.60447 8.32895 9.60447C8.32895 9.60447 7.7651 10.2158 7.7651 10.7329C7.7651 11.2493 8.32895 11.9011 8.32895 11.9011C8.32895 11.9011 7.80886 12.5268 7.80886 13.0433C7.80886 13.449 8.1998 13.977 8.08031 13.977H1.99705C1.37725 13.977 0.875 13.4702 0.875 12.8451V6.30612C0.875 5.99976 3.0891 5.37822 3.50352 4.17077Z" fill="#06101A"/>
</svg>
