<svg width="151" height="35" viewBox="0 0 151 35" fill="none" xmlns="http://www.w3.org/2000/svg">
<path d="M1.42199 28.6953V25.1403L13.0452 9.43661V10.8586H1.42199V6.90176H17.6512V10.4258L5.99709 26.1295V24.7385H18.084V28.6953H1.42199ZM26.7232 29.0354C25.363 29.0354 24.1677 28.7056 23.1373 28.0461C22.1069 27.3867 21.3031 26.449 20.7261 25.2331C20.1491 24.0172 19.8605 22.554 19.8605 20.8435C19.8605 19.1535 20.1491 17.7006 20.7261 16.4847C21.3031 15.2688 22.1069 14.3414 23.1373 13.7026C24.1677 13.0431 25.363 12.7134 26.7232 12.7134C27.9803 12.7134 29.1035 13.0225 30.0927 13.6408C31.1025 14.2384 31.762 15.0524 32.0711 16.0829H31.7311L32.102 13.0225H36.5844C36.5226 13.7026 36.4607 14.393 36.3989 15.0937C36.3577 15.7737 36.3371 16.4435 36.3371 17.103V28.6953H31.7002L31.6692 25.7586H32.0402C31.7105 26.7478 31.051 27.5412 30.0618 28.1389C29.0726 28.7365 27.9597 29.0354 26.7232 29.0354ZM28.1452 25.5113C29.2168 25.5113 30.0824 25.13 30.7419 24.3675C31.4013 23.605 31.7311 22.4303 31.7311 20.8435C31.7311 19.2566 31.4013 18.0922 30.7419 17.3503C30.0824 16.6084 29.2168 16.2374 28.1452 16.2374C27.0735 16.2374 26.208 16.6084 25.5485 17.3503C24.889 18.0922 24.5593 19.2566 24.5593 20.8435C24.5593 22.4303 24.8787 23.605 25.5176 24.3675C26.1771 25.13 27.0529 25.5113 28.1452 25.5113ZM40.1652 28.6953V13.0225H44.833V28.6953H40.1652ZM39.9797 10.4567V6.09803H44.9876V10.4567H39.9797ZM48.6481 28.6953V17.103C48.6481 16.4435 48.6275 15.7737 48.5863 15.0937C48.5451 14.393 48.4832 13.7026 48.4008 13.0225H52.8832L53.2232 15.9283H52.8523C53.3057 14.9391 53.9754 14.156 54.8616 13.5789C55.7478 13.0019 56.7988 12.7134 58.0147 12.7134C59.21 12.7134 60.2095 13.0019 61.0133 13.5789C61.8376 14.1354 62.4249 15.0112 62.7753 16.2065H62.2807C62.7341 15.1349 63.4554 14.2899 64.4446 13.6717C65.4338 13.0328 66.557 12.7134 67.8141 12.7134C69.5864 12.7134 70.9054 13.2389 71.7709 14.2899C72.6365 15.341 73.0693 16.9896 73.0693 19.236V28.6953H68.4014V19.3905C68.4014 18.2983 68.2263 17.5152 67.8759 17.0412C67.5256 16.5672 66.9588 16.3302 66.1757 16.3302C65.2483 16.3302 64.5167 16.6599 63.9809 17.3194C63.4451 17.9789 63.1772 18.8856 63.1772 20.0397V28.6953H58.5093V19.3905C58.5093 18.2983 58.3341 17.5152 57.9838 17.0412C57.6335 16.5672 57.0667 16.3302 56.2836 16.3302C55.3562 16.3302 54.6246 16.6599 54.0888 17.3194C53.5736 17.9789 53.316 18.8856 53.316 20.0397V28.6953H48.6481Z" fill="white"/>
<rect x="79.946" y="0.512695" width="70.3651" height="34.3651" rx="6.18257" fill="url(#paint0_linear_3605_1721)"/>
<path d="M88.0453 28.6953V5.94346H92.7131V15.9592H92.2494C92.744 14.9082 93.4756 14.1045 94.4442 13.548C95.4128 12.9916 96.5257 12.7134 97.7828 12.7134C99.617 12.7134 100.987 13.2492 101.894 14.3208C102.801 15.3719 103.254 16.9896 103.254 19.1742V28.6953H98.5865V19.3905C98.5865 18.2983 98.3805 17.5152 97.9683 17.0412C97.5767 16.5672 96.9585 16.3302 96.1135 16.3302C95.0831 16.3302 94.2587 16.6496 93.6405 17.2885C93.0222 17.9273 92.7131 18.7826 92.7131 19.8542V28.6953H88.0453ZM112.691 29.0354C110.734 29.0354 109.281 28.4995 108.333 27.4279C107.385 26.3356 106.911 24.6869 106.911 22.4818V13.0225H111.579V22.4818C111.579 23.471 111.774 24.2026 112.166 24.6766C112.578 25.1506 113.207 25.3876 114.052 25.3876C114.979 25.3876 115.742 25.0682 116.339 24.4293C116.957 23.7699 117.267 22.894 117.267 21.8017V13.0225H121.934V28.6953H117.39V25.6968H117.823C117.349 26.7478 116.669 27.5721 115.783 28.1698C114.917 28.7468 113.887 29.0354 112.691 29.0354ZM135.364 29.0354C134.107 29.0354 132.983 28.7262 131.994 28.108C131.026 27.4897 130.376 26.6654 130.047 25.6349H130.387V28.6953H125.781V5.94346H130.448V15.9592H130.047C130.397 14.97 131.056 14.1869 132.025 13.6098C133.014 13.0122 134.127 12.7134 135.364 12.7134C136.744 12.7134 137.95 13.0431 138.98 13.7026C140.011 14.3621 140.815 15.2997 141.392 16.5157C141.989 17.7316 142.288 19.1948 142.288 20.9053C142.288 22.5952 141.989 24.0481 141.392 25.264C140.815 26.4799 140.001 27.4176 138.95 28.0771C137.919 28.7159 136.724 29.0354 135.364 29.0354ZM133.973 25.5113C135.024 25.5113 135.889 25.1403 136.569 24.3984C137.249 23.6565 137.589 22.4921 137.589 20.9053C137.589 19.3184 137.249 18.1437 136.569 17.3812C135.889 16.6187 135.024 16.2374 133.973 16.2374C132.901 16.2374 132.025 16.6084 131.345 17.3503C130.685 18.0922 130.356 19.2566 130.356 20.8435C130.356 22.4303 130.685 23.605 131.345 24.3675C132.025 25.13 132.901 25.5113 133.973 25.5113Z" fill="black"/>
<defs>
<linearGradient id="paint0_linear_3605_1721" x1="79.5178" y1="0.444306" x2="151.124" y2="33.881" gradientUnits="userSpaceOnUse">
<stop stop-color="#F7971D"/>
<stop offset="1" stop-color="#F76B1D"/>
</linearGradient>
</defs>
</svg>
