<?xml version="1.0" encoding="utf-8"?><svg xmlns="http://www.w3.org/2000/svg" xmlns:xlink="http://www.w3.org/1999/xlink"><symbol viewBox="0 0 16 16" id="cross" xmlns="http://www.w3.org/2000/svg"><path d="M2.08621 1.875L8 7.89255M8 7.89255L14.125 14.125M8 7.89255L1.875 14.125M8 7.89255L13.9138 1.87501"/></symbol><symbol viewBox="0 0 14 14" id="dots" xmlns="http://www.w3.org/2000/svg"><ellipse cx="1.4" cy="7.0001" rx="1.4" ry="1.4"/><circle cx="6.99985" cy="7.0001" r="1.4"/><circle cx="12.6" cy="7.0001" r="1.4"/></symbol><symbol viewBox="0 0 16 14" id="drop" xmlns="http://www.w3.org/2000/svg"><path d="M14.125 4.55957L8 10.5L1.875 4.55957"/></symbol><symbol viewBox="0 0 17 18" id="edit" xmlns="http://www.w3.org/2000/svg"><path d="M3.1452 11.8014L12.7846 2.15229C13.3933 1.54299 14.3802 1.54299 14.9888 2.15229L15.5435 2.7075C16.1522 3.3168 16.1522 4.30467 15.5435 4.91398L14.5462 5.91228M3.1452 11.8014L2 15.6953L5.90409 14.5631M3.1452 11.8014C4.68162 11.973 5.73749 12.9974 5.90409 14.5631M5.90409 14.5631L14.5462 5.91228M14.5462 5.91228L15.289 6.65583C15.289 6.65583 15.9956 7.33065 15.289 8.03798L12.0808 11.2494"/></symbol><symbol viewBox="0 0 15 15" id="lightning" xmlns="http://www.w3.org/2000/svg"><path d="M9.88161 1.08097L4.84926 7.29515C4.6994 7.48022 4.83111 7.75636 5.06925 7.75636H6.41974C6.60551 7.75636 6.74092 7.93228 6.69338 8.11186L5.42981 12.8853C5.3516 13.1808 5.73234 13.3734 5.92397 13.1353L10.9459 6.89594C11.0949 6.71073 10.9631 6.43538 10.7254 6.43538H9.41783C9.23266 6.43538 9.09735 6.26052 9.14383 6.08128L10.3756 1.33015C10.452 1.03553 10.0732 0.844439 9.88161 1.08097Z"/></symbol><symbol viewBox="0 0 16 17" id="mail" xmlns="http://www.w3.org/2000/svg"><path d="M3.82466 7.00078L8 10.3619L12.305 7.00078M2.6391 14.3619H13.3609C14.2662 14.3619 15 13.6281 15 12.7228V5.49749C15 4.59225 14.2661 3.8584 13.3609 3.8584H2.6391C1.73385 3.8584 1 4.59225 1 5.4975L1 12.7228C1 13.6281 1.73385 14.3619 2.6391 14.3619Z"/></symbol><symbol viewBox="0 0 16 17" id="phone" xmlns="http://www.w3.org/2000/svg"><path d="M3.5 2.84392C3.5 2.20956 4.01343 1.69531 4.64677 1.69531H11.3532C11.9866 1.69531 12.5 2.20956 12.5 2.84392V9.97416V14.5467C12.5 15.1811 11.9866 15.6953 11.3532 15.6953H6.7032H4.64677C4.01343 15.6953 3.5 15.1811 3.5 14.5467L3.5 12.7338L3.5 2.84392Z"/><circle cx="8" cy="11.8167" r="1"/></symbol><symbol viewBox="0 0 16 17" id="settings" xmlns="http://www.w3.org/2000/svg"><path d="M1 4.45801H2.90451M15 4.45801H8.00011"/><path d="M1 12.7969H8.46335M15 12.7969H13.0957"/><path fill-rule="evenodd" clip-rule="evenodd" d="M5.22072 6.77494C6.49991 6.77494 7.5369 5.73795 7.5369 4.45876C7.5369 3.17957 6.49991 2.14258 5.22072 2.14258C3.94153 2.14258 2.90454 3.17957 2.90454 4.45876C2.90454 5.73795 3.94153 6.77494 5.22072 6.77494Z"/><path fill-rule="evenodd" clip-rule="evenodd" d="M10.7796 15.1128C12.0587 15.1128 13.0957 14.0758 13.0957 12.7966C13.0957 11.5175 12.0587 10.4805 10.7796 10.4805C9.50038 10.4805 8.46338 11.5175 8.46338 12.7966C8.46338 14.0758 9.50038 15.1128 10.7796 15.1128Z"/></symbol><symbol viewBox="0 0 16 14" id="user" xmlns="http://www.w3.org/2000/svg"><path d="M1.875 12.6875L2.89947 10.6386C3.34413 9.74925 4.25307 9.1875 5.24734 9.1875H10.7527C11.7469 9.1875 12.6559 9.74925 13.1006 10.6386L14.125 12.6875M10.625 3.9375C10.625 5.38725 9.44975 6.5625 8 6.5625C6.55025 6.5625 5.375 5.38725 5.375 3.9375C5.375 2.48775 6.55025 1.3125 8 1.3125C9.44975 1.3125 10.625 2.48775 10.625 3.9375Z"/></symbol></svg>