<?xml version="1.0" encoding="utf-8"?><svg xmlns="http://www.w3.org/2000/svg" xmlns:xlink="http://www.w3.org/1999/xlink"><symbol viewBox="0 0 16 16" id="cross" xmlns="http://www.w3.org/2000/svg"><path d="M2.08621 1.875L8 7.89255M8 7.89255L14.125 14.125M8 7.89255L1.875 14.125M8 7.89255L13.9138 1.87501"/></symbol><symbol viewBox="0 0 14 14" id="dots" xmlns="http://www.w3.org/2000/svg"><ellipse cx="1.4" cy="7.0001" rx="1.4" ry="1.4"/><circle cx="6.99985" cy="7.0001" r="1.4"/><circle cx="12.6" cy="7.0001" r="1.4"/></symbol><symbol viewBox="0 0 15 15" id="lightning" xmlns="http://www.w3.org/2000/svg"><path d="M9.88161 1.08097L4.84926 7.29515C4.6994 7.48022 4.83111 7.75636 5.06925 7.75636H6.41974C6.60551 7.75636 6.74092 7.93228 6.69338 8.11186L5.42981 12.8853C5.3516 13.1808 5.73234 13.3734 5.92397 13.1353L10.9459 6.89594C11.0949 6.71073 10.9631 6.43538 10.7254 6.43538H9.41783C9.23266 6.43538 9.09735 6.26052 9.14383 6.08128L10.3756 1.33015C10.452 1.03553 10.0732 0.844439 9.88161 1.08097Z"/></symbol><symbol viewBox="0 0 16 14" id="user" xmlns="http://www.w3.org/2000/svg"><path d="M1.875 12.6875L2.89947 10.6386C3.34413 9.74925 4.25307 9.1875 5.24734 9.1875H10.7527C11.7469 9.1875 12.6559 9.74925 13.1006 10.6386L14.125 12.6875M10.625 3.9375C10.625 5.38725 9.44975 6.5625 8 6.5625C6.55025 6.5625 5.375 5.38725 5.375 3.9375C5.375 2.48775 6.55025 1.3125 8 1.3125C9.44975 1.3125 10.625 2.48775 10.625 3.9375Z"/></symbol></svg>